<svg xmlns="http://www.w3.org/2000/svg" width="800" height="800"><path d="M399.8 48.6c-37 0-74 24.8-160 74.4C68.3 222.3 80 201.8 80.2 400.2c.2 198.3-11.6 178 160.2 277 171.8 99 148.2 99 320-.2 171.6-99.3 159.8-78.8 159.7-277.2-.2-198.3 11.6-178-160.2-277-86-49.5-123-74.3-160-74.2zm0 154.2c26 0 49.4 4.4 70 13 20.8 9 38.4 20.8 52.8 36 14.5 15 25.5 32.7 33.2 53 7.7 20.6 11.5 42.4 11.5 65.7 0 21.2-3.4 41-10.2 60-6.8 18.6-16.6 35.2-29.4 49.7-13 14.4-28.6 26.3-47 35.7-18.5 9.3-39.4 15.2-62.6 17.6 6.4 2 12.8 4 19.4 6.5 6.6 2.5 13.3 4.8 20 7 7 2.3 13.8 4.2 20.8 5.7s14 2.3 20.8 2.3c3.7 0 7.3-.3 10.8-.7 3.5-.5 7-1.3 10.6-2.4l.3 41.5c-8.7 2.4-17.6 3.7-26.8 3.7-7 0-13.6-.7-20-2-6.2-1.5-12.3-3.3-18.2-5.4-6-2-11.8-4.3-17.7-6.8-5.8-2.6-12-5-18.3-7-6.4-2-13-3.7-20-5-7-1.5-14.4-2.3-22.5-2.3-14.2 0-27.4 1.4-39.5 4-12 2.6-23.5 6.3-34.2 11l-.3-38.6c11.3-5.7 21.4-9.7 30.3-12 9-2.2 17-3.3 24.6-3.3-19.6-4.5-37.2-11.8-52.8-21.7-15.5-10-28.7-21.8-39.5-35.7-10.8-14-19-29.5-24.6-46.8-5.5-17.4-8.3-35.7-8.3-55 0-23.5 3.8-45.4 11.5-65.8 7.7-20.5 18.7-38.2 33-53.3 14.4-15 32-27 52.6-35.6 20.7-8.6 44-13 70-13zm0 38.3c-18 0-34 3.4-48.3 10-14.3 6.8-26.7 16-37 27.7s-18.2 25.4-23.8 41c-5.5 16-8.3 32.8-8.3 50.8 0 18.3 2.8 35.4 8.4 51 5.5 15.7 13.4 29.3 23.7 40.8 10.3 11.5 22.7 20.6 37 27 14.3 6.7 30.4 10 48.2 10 17.8 0 34-3.3 48.6-10 14.5-6.4 27-15.5 37-27 10.3-11.5 18.2-25 23.7-40.8 5.5-15.6 8.3-32.7 8.3-51 0-18-2.8-35-8.3-50.7-5.5-15.7-13.4-29.4-23.6-41-10.2-12-22.6-21-37-27.7-14.7-6.6-31-10-48.7-10z" fill="#fff"/></svg>